<?xml version="1.0" encoding="utf-8"?>
<svg width="100%" height="100%" viewBox="0 0 1700 1600" xmlns="http://www.w3.org/2000/svg">

  <defs>
    <!-- Vacuum Symbols Will Be Inserted Here -->
  </defs>

  <style>
    <!-- Vacuum Styles Will Be Inserted Here -->
  </style>

  <g id="Header">
    <text class="banner" x="1400" y="60" text-anchor="middle" style="white-space: pre;">860keV Vacuum Layout</text>
    <text id="$TIME_TEXT" class="value" x="2750" y="60" text-anchor="end">2019-11-22 10:54:00</text>
    <g id="vacuum_pipe">
      <rect x="200" y="150" width="400" height="200" style="fill: rgb(216, 216, 216);"/>
      <text class="banner" x="400" y="260" text-anchor="middle">Vacuum Pipe</text>
    </g>
  </g>

  <g id="PXZ_LINK" transform="matrix(1, 0, 0, 1, 2550, 825)">
    <rect class="nav_box" x="2" y="400" width="146" height="50"/>
    <a target="_top" href="cw.html">
      <text class="nav_label" x="75" y="432" text-anchor="middle" style="white-space: pre;">&gt;&gt; PXZ</text>
    </a>
  </g>

  <g id="860_Link" transform="matrix(1, 0, 0, 1, 1400, 1000)">
    <rect class="nav_box" x="102" y="1400" width="196" height="50"/>
    <a target="_top" transform="matrix(1, 0, 0, 1, 100, 1000)" href="cw.html">
      <text class="nav_label" x="100" y="432" text-anchor="middle" style="white-space: pre;">&gt;&gt; 860 Vakuum</text>
    </a>
  </g>

  <g id="INJ2_LINK" transform="matrix(1, 0, 0, 1, 2550, 25)">
    <rect class="nav_box" x="2" y="400" width="146" height="50"/>
    <a target="_top" href="cw.html">
      <text class="nav_label" x="75" y="432" text-anchor="middle">&gt;&gt; INJ2</text>
    </a>
  </g>

  <g id="CW_Link" transform="matrix(1, 0, 0, 1, 200, 1075)">
    <rect class="nav_box" x="2" y="400" width="146" height="50" style="fill: rgb(211, 211, 211); stroke: rgb(169, 169, 169); stroke-width: 4px; rx: 8px;"/>
    <a target="_top" href="cw.html">
      <text class="nav_label" x="75" y="432" text-anchor="middle" >&gt;&gt; CW</text>
    </a>
  </g>

  <use width="100" height="250" transform="matrix(1, 0, 0, 1, 800, 152)" href="#vacuum_gauge"/>

  <g id="PW4" transform="matrix(1, 0, 0, 1, 2050, 100)">
    <use id="$PW4_HV" width="100" height="100" transform="matrix(1, 0, 0, 1, 350, 450)" href="#vacuum_valve_vert"/>
    <use id="$PW4_TURBO" width="100" height="100" transform="matrix(1, 0, 0, 1, 350, 650)" href="#vacuum_pump_turbo"/>
    <use id="$PW4_PV" width="100" height="100" transform="matrix(1, 0, 0, 1, 350, 950)" href="#vacuum_valve_vert"/>
    <use id="$PW4_GAUGE" width="100" height="250" transform="matrix(1, 0, 0, 1, 150, 850)" style="--gauge_scale_1:none; --gauge_scale_2:visible;" href="#vacuum_gauge"/>
    <use width="100" height="250" transform="matrix(1, 0, 0, 1, 350, 50)" style="--gauge_scale_1:none; --gauge_scale_2:visible;" id="$GW4_GAUGE" href="#vacuum_gauge"/>
    <use id="$VWD4_VALVE" width="100" height="100" transform="matrix(1, 0, 0, 1, 150, 300)" href="#vacuum_valve_horiz"/>
    <text class="value" x="200" y="1085" text-anchor="middle">9.9e-9</text>
    <text class="value" x="400" y="285" text-anchor="middle">9.9e-9</text>
    <text class="label_m" x="400" y="1185" text-anchor="middle">PW4</text>
    <text class="label_m" x="400" y="35" text-anchor="middle">GW4</text>
    <text class="label_m" x="440" y="510">HV</text>
    <text class="label_m" x="440" y="1010">PV</text>
    <use width="100" height="100" transform="matrix(1, 0, 0, 1, 350, 700)" href="#vacuum_tube_vert_upper"/>
    <use width="100" height="100" transform="matrix(1, 0, 0, 1, 350, 900)" href="#vacuum_tube_vert_upper"/>
    <use width="100" height="100" transform="matrix(1, 0, 0, 1, 350, 800)" href="#vacuum_buffer"/>
    <use width="100" height="100" transform="matrix(1, 0, 0, 1, 350, 550)" href="#vacuum_tube_vert"/>
    <use width="100" height="100" transform="matrix(1, 0, 0, 1, 350, 300)" href="vacuum_tube_horiz"/>
    <use width="100" height="100" transform="matrix(1, 0, 0, 1, 350, 1100)" href="#vacuum_tube_horiz"/>
    <use width="100" height="100" transform="matrix(2, 0, 0, 1, 250, 300)" href="#vacuum_tube_horiz"/>
    <use width="100" height="100" transform="matrix(1, 0, 0, 1, 50, 300)" href="#vacuum_tube_horiz"/>
    <use width="100" height="100" transform="matrix(1, 0, 0, 1, 350, 1050)" href="#vacuum_tube_vert"/>
    <use width="100" height="100" transform="matrix(1, 0, 0, 1, 350, 350)" href="#vacuum_tube_vert"/>
    <use width="100" height="100" transform="matrix(3, 0, 0, 1, 50, 1100)" href="#vacuum_tube_horiz"/>
    <use width="100" height="100" transform="matrix(1, 0, 0, 1, 350, 750)" href="#vacuum_tube_vert_upper"/>
  </g>
  <use width="100" height="100" transform="matrix(1, 0, 0, 1, 2450, 1050" href="#vacuum_tube_horiz"/>

  <g transform="matrix(1, 0, 0, 1, -100, 0)">
    <use id="use-1" width="100" height="100" transform="matrix(1, 0, 0, 1, 898, 550)" href="#vacuum_valve_vert"/>
    <use id="use-2" width="100" height="100" transform="matrix(1, 0, 0, 1, 898, 750)" href="#vacuum_pump_turbo"/>
    <use id="use-3" width="100" height="100" transform="matrix(1, 0, 0, 1, 898, 1050)" href="#vacuum_valve_vert"/>
    <use id="use-4" width="100" height="250" transform="matrix(1, 0, 0, 1, 700, 950)" style="--gauge_scale_1:none;--gauge_scale_2:visible;" href="#vacuum_gauge"/>
    <use id="use-10" width="100" height="250" transform="matrix(1, 0, 0, 1, 300, 950)" style="--gauge_scale_1:none;--gauge_scale_2:visible;" href="#vacuum_gauge"/>
    <use id="use-11" width="100" height="250" transform="matrix(1, 0, 0, 1, 700, 1300)" style="--gauge_scale_1:none;--gauge_scale_2:visible;" href="#vacuum_gauge"/>
    <use id="use-5" width="100" height="100" transform="matrix(1, 0, 0, 1, 698, 650)" href="#vacuum_valve_horiz"/>
    <use id="use-9" width="100" height="100" transform="matrix(1, 0, 0, 1, 300, 550)" href="#vacuum_valve_vert"/>
    <use width="100" height="100" transform="matrix(0, 1, 0, 0, 600, 400)" href="#vacuum_valve_horiz"/>
    <use id="use-6" width="100" height="100" transform="matrix(1, 0, 0, 1, 500, 550)" href="#vacuum_valve_vert"/>
    <use id="use-7" width="100" height="100" transform="matrix(1, 0, 0, 1, 500, 750)" href="#vacuum_pump_turbo"/>
    <use id="use-8" width="100" height="100" transform="matrix(1, 0, 0, 1, 500, 1050)" href="#vacuum_valve_vert"/>
    <text id="text-1" class="value" x="750" y="1180" text-anchor="middle" >9.9e-9</text>
    <text id="text-2" class="value" x="350" y="1180" text-anchor="middle" >9.9e-9</text>
    <text class="label_m" x="885" y="835" text-anchor="end" >PWKO</text>
    <text class="label_m" x="490" y="835" text-anchor="end" style="white-space: pre; font-size: 24px;">PWTO</text>
    <text class="label_m" x="988" y="610" style="white-space: pre; font-size: 24px;">HV</text>
    <text class="label_m" x="989" y="1110" style="white-space: pre; font-size: 24px;">RV</text>
    <text class="label_m" x="590" y="610" style="white-space: pre; font-size: 24px;">HV</text>
    <text class="label_m" x="590" y="1110" style="white-space: pre; font-size: 24px;">VV</text>
    <text class="label_m" x="390" y="610" style="white-space: pre; font-size: 24px;">HV</text>
    <text class="label_m" x="730" y="650" style="white-space: pre; font-size: 24px;">TV</text>
    <use width="100" height="100" transform="matrix(1, 0, 0, 1.5, 300, 648)" href="#vacuum_tube_vert"/>
    <use width="100" height="100" transform="matrix(4, 0, 0, 1, 550, 1200)" href="#vacuum_tube_horiz"/>
    <use width="100" height="100" transform="matrix(1, 0, 0, 1, 500, 850)" href="#vacuum_tube_vert_upper"/>
    <use width="100" height="100" transform="matrix(1, 0, 0, 1, 500, 1000)" href="#vacuum_tube_vert_upper"/>
    <use width="100" height="100" transform="matrix(1, 0, 0, 1, 500, 900)" href="#vacuum_buffer"/>
    <use width="100" height="100" transform="matrix(1, 0, 0, 1, 500, 650)" href="#vacuum_tube_vert"/>
    <use width="100" height="100" transform="matrix(1.5, 0, 0, 1, 800, 650)" href="#vacuum_tube_horiz"/>
    <use width="100" height="100" transform="matrix(1.5, 0, 0, 1, 550, 650)" href="#vacuum_tube_horiz"/>
    <use width="100" height="100" transform="matrix(6, 0, 0, 1, 350, 450)" href="#vacuum_tube_horiz"/>
    <use width="100" height="100" transform="matrix(1.5, 0, 0, 1, 350, 750)" href="#vacuum_tube_horiz"/>
    <use width="100" height="100" transform="matrix(1, 0, 0, 1, 300, 500)" href="#vacuum_tube_vert_upper"/>
    <use width="100" height="100" transform="matrix(1, 0, 0, 1, 898, 648)" href="#vacuum_tube_vert"/>
    <use width="100" height="100" transform="matrix(1, 0, 0, 1, 898, 500)" href="#vacuum_tube_vert_upper"/>
    <use width="100" height="100" transform="matrix(1, 0, 0, 1, 500, 1300)" href="#vacuum_pump"/>
    <use width="100" height="100" transform="matrix(1, 0, 0, 2, 900, 850)" href="#vacuum_tube_vert"/>
    <text id="text-3" class="value" x="750" y="1530" text-anchor="middle">9.9e-9</text>
    <use width="100" height="100" transform="matrix(1, 0, 0, 1.52, 500, 1148)" href="#vacuum_tube_vert"/>
    <text class="label_m" x="330" y="933">GP</text>
    <text class="label_m" x="730" y="932">GK</text>
    <text class="label_m" x="607" y="1360">VP</text>
  </g>

  <use width="100" height="100" transform="matrix(1, 0, 0, 2, 650, 300)" href="#vacuum_tube_vert"/>
  <use width="100" height="100" transform="matrix(1, 0, 0, 2.5, 700, 200)" href="#vacuum_tube_vert"/>
  <use width="100" height="100" transform="matrix(1.5, 0, 0, 1, 600, 152)" href="#vacuum_tube_horiz"/>

  <g id="PW3" transform="matrix(1, 0, 0, 1, 1650, 100)">
    <use id="use-12" width="100" height="100" transform="matrix(1, 0, 0, 1, 350, 450)" href="#vacuum_valve_vert"/>
    <use id="use-13" width="100" height="100" transform="matrix(1, 0, 0, 1, 350, 650)" href="#vacuum_pump_turbo"/>
    <use id="use-14" width="100" height="100" transform="matrix(1, 0, 0, 1, 350, 950)" href="#vacuum_valve_vert"/>
    <use id="use-15" width="100" height="250" transform="matrix(1, 0, 0, 1, 150, 850)" style="--gauge_scale_1:none; --gauge_scale_2:visible;" href="#vacuum_gauge"/>
    <use width="100" height="250" transform="matrix(1, 0, 0, 1, 350, 50)" style="--gauge_scale_1:none; --gauge_scale_2:visible;" id="use-16" href="#vacuum_gauge"/>
    <use id="use-17" width="100" height="100" transform="matrix(1, 0, 0, 1, 150, 300)" href="#vacuum_valve_horiz"/>
    <text class="value" x="200" y="1085" text-anchor="middle">9.9e-9</text>
    <text class="value" x="400" y="285" text-anchor="middle">9.9e-9</text>
    <text class="label_m" x="400" y="1185" text-anchor="middle" >PW3</text>
    <text class="label_m" x="400" y="35" text-anchor="middle" >GW3</text>
    <text class="label_m" x="440" y="510" >HV</text>
    <text class="label_m" x="440" y="1010" >PV</text>
    <use width="100" height="100" transform="matrix(1, 0, 0, 1, 350, 700)" href="#vacuum_tube_vert_upper"/>
    <use width="100" height="100" transform="matrix(1, 0, 0, 1, 350, 900)" href="#vacuum_tube_vert_upper"/>
    <use width="100" height="100" transform="matrix(1, 0, 0, 1, 350, 800)" href="#vacuum_buffer"/>
    <use width="100" height="100" transform="matrix(1, 0, 0, 1, 350, 550)" href="#vacuum_tube_vert"/>
    <use width="100" height="100" transform="matrix(1, 0, 0, 1, 350, 300)" href="vacuum_tube_horiz"/>
    <use width="100" height="100" transform="matrix(1, 0, 0, 1, 350, 1100)" href="#vacuum_tube_horiz"/>
    <use width="100" height="100" transform="matrix(2, 0, 0, 1, 250, 300)" href="#vacuum_tube_horiz"/>
    <use width="100" height="100" transform="matrix(1, 0, 0, 1, 50, 300)" href="#vacuum_tube_horiz"/>
    <use width="100" height="100" transform="matrix(1, 0, 0, 1, 350, 1050)" href="#vacuum_tube_vert"/>
    <use width="100" height="100" transform="matrix(1, 0, 0, 1, 350, 350)" href="#vacuum_tube_vert"/>
    <use width="100" height="100" transform="matrix(3, 0, 0, 1, 50, 1100)" href="#vacuum_tube_horiz"/>
    <use width="100" height="100" transform="matrix(1, 0, 0, 1, 350, 750)" href="#vacuum_tube_vert_upper"/>
    <use id="use-31" width="100" height="100" transform="matrix(1, 0, 0, 1, 150.48494, 198.45851)" href="#vacuum_valve_horiz"/>
    <use width="100" height="100" transform="matrix(1, 0, 0, 1, 250.48494, 250)" href="#vacuum_tube_vert"/>
    <use width="100" height="100" transform="matrix(1, 0, 0, 1, 50, 250)" href="#vacuum_tube_vert"/>
  </g>

  <g id="PW2" transform="matrix(1, 0, 0, 1, 1250, 100)">
    <use id="use-18" width="100" height="100" transform="matrix(1, 0, 0, 1, 350, 450)" href="#vacuum_valve_vert"/>
    <use id="use-19" width="100" height="100" transform="matrix(1, 0, 0, 1, 350, 650)" href="#vacuum_pump_turbo"/>
    <use id="use-20" width="100" height="100" transform="matrix(1, 0, 0, 1, 350, 950)" href="#vacuum_valve_vert"/>
    <use id="use-21" width="100" height="250" transform="matrix(1, 0, 0, 1, 150, 850)" style="--gauge_scale_1:none; --gauge_scale_2:visible;" href="#vacuum_gauge"/>
    <use width="100" height="250" transform="matrix(1, 0, 0, 1, 350, 50)" style="--gauge_scale_1:none; --gauge_scale_2:visible;" id="use-22" href="#vacuum_gauge"/>
    <use id="use-23" width="100" height="100" transform="matrix(1, 0, 0, 1, 150, 300)" href="#vacuum_valve_horiz"/>
    <text class="value" x="200" y="1085" text-anchor="middle">9.9e-9</text>
    <text class="value" x="400" y="285" text-anchor="middle">9.9e-9</text>
    <text class="label_m" x="400" y="1185" text-anchor="middle" >PW2</text>
    <text class="label_m" x="400" y="35" text-anchor="middle" >GW2</text>
    <text class="label_m" x="440" y="510" >HV</text>
    <text class="label_m" x="440" y="1010" >PV</text>
    <use width="100" height="100" transform="matrix(1, 0, 0, 1, 350, 700)" href="#vacuum_tube_vert_upper"/>
    <use width="100" height="100" transform="matrix(1, 0, 0, 1, 350, 900)" href="#vacuum_tube_vert_upper"/>
    <use width="100" height="100" transform="matrix(1, 0, 0, 1, 350, 800)" href="#vacuum_buffer"/>
    <use width="100" height="100" transform="matrix(1, 0, 0, 1, 350, 550)" href="#vacuum_tube_vert"/>
    <use width="100" height="100" transform="matrix(1, 0, 0, 1, 350, 300)" href="vacuum_tube_horiz"/>
    <use width="100" height="100" transform="matrix(1, 0, 0, 1, 350, 1100)" href="#vacuum_tube_horiz"/>
    <use width="100" height="100" transform="matrix(2, 0, 0, 1, 250, 300)" href="#vacuum_tube_horiz"/>
    <use width="100" height="100" transform="matrix(1, 0, 0, 1, 50, 300)" href="#vacuum_tube_horiz"/>
    <use width="100" height="100" transform="matrix(1, 0, 0, 1, 350, 1050)" href="#vacuum_tube_vert"/>
    <use width="100" height="100" transform="matrix(1, 0, 0, 1, 350, 350)" href="#vacuum_tube_vert"/>
    <use width="100" height="100" transform="matrix(3, 0, 0, 1, 50, 1100)" href="#vacuum_tube_horiz"/>
    <use width="100" height="100" transform="matrix(1, 0, 0, 1, 350, 750)" href="#vacuum_tube_vert_upper"/>
    <use id="use-30" width="100" height="100" transform="matrix(1, 0, 0, 1, 150, 200)" href="#vacuum_valve_horiz"/>
    <use width="100" height="100" transform="matrix(1, 0, 0, 1, 250, 250)" href="#vacuum_tube_vert"/>
    <use width="100" height="100" transform="matrix(1, 0, 0, 1, 50, 250)" href="#vacuum_tube_vert"/>
    <use width="100" height="100" transform="matrix(0.98222, 0, 0, 1, 200, 200)" href="#vacuum_tube_horiz_right"/>
    <use width="100" height="100" transform="matrix(0.98222, 0, 0, 1, 50, 200)" href="#vacuum_tube_horiz_right"/>
  </g>

  <g id="PW1" transform="matrix(1, 0, 0, 1, 850, 100)">
    <use id="use-24" width="100" height="100" transform="matrix(1, 0, 0, 1, 350, 450)" href="#vacuum_valve_vert"/>
    <use id="use-25" width="100" height="100" transform="matrix(1, 0, 0, 1, 350, 650)" href="#vacuum_pump_turbo"/>
    <use id="use-26" width="100" height="100" transform="matrix(1, 0, 0, 1, 350, 950)" href="#vacuum_valve_vert"/>
    <use id="use-27" width="100" height="250" transform="matrix(1, 0, 0, 1, 150, 850)" style="--gauge_scale_1:none; --gauge_scale_2:visible;" href="#vacuum_gauge"/>
    <use width="100" height="250" transform="matrix(1, 0, 0, 1, 350, 50)" style="--gauge_scale_1:none; --gauge_scale_2:visible;" id="use-28" href="#vacuum_gauge"/>
    <use id="use-29" width="100" height="100" transform="matrix(1, 0, 0, 1, 150, 300)" href="#vacuum_valve_horiz"/>
    <text class="value" x="200" y="1085" text-anchor="middle">9.9e-9</text>
    <text class="value" x="400" y="285" text-anchor="middle">9.9e-9</text>
    <text class="label_m" x="400" y="1185" text-anchor="middle" >PW1</text>
    <text class="label_m" x="400" y="35" text-anchor="middle" >GW1</text>
    <text class="label_m" x="440" y="510" >HV</text>
    <text class="label_m" x="440" y="1010" >PV</text>
    <use width="100" height="100" transform="matrix(1, 0, 0, 1, 350, 700)" href="#vacuum_tube_vert_upper"/>
    <use width="100" height="100" transform="matrix(1, 0, 0, 1, 350, 900)" href="#vacuum_tube_vert_upper"/>
    <use width="100" height="100" transform="matrix(1, 0, 0, 1, 350, 800)" href="#vacuum_buffer"/>
    <use width="100" height="100" transform="matrix(1, 0, 0, 1, 350, 550)" href="#vacuum_tube_vert"/>
    <use width="100" height="100" transform="matrix(1, 0, 0, 1, 350, 300)" href="vacuum_tube_horiz"/>
    <use width="100" height="100" transform="matrix(2, 0, 0, 1, 250, 300)" href="#vacuum_tube_horiz"/>
    <use width="100" height="100" transform="matrix(1, 0, 0, 1, 350, 1050)" href="#vacuum_tube_vert"/>
    <use width="100" height="100" transform="matrix(1, 0, 0, 1, 350, 350)" href="#vacuum_tube_vert"/>
    <use width="100" height="100" transform="matrix(1, 0, 0, 1, 350, 750)" href="#vacuum_tube_vert_upper"/>
  </g>

  <use width="100" height="100" transform="matrix(1, 0, 0, 1, 800, 1150)" href="#vacuum_tube_vert"/>
  <text class="label_m" x="730" y="932" transform="matrix(1, 0, 0, 1, -101, 350)">GV</text>
  <use width="100" height="100" transform="matrix(1, 0, 0, 1, 600, 250)" href="#vacuum_tube_horiz"/>
  <use width="100" height="100" transform="matrix(2.5, 0, 0, 1, 750, 400)" href="#vacuum_tube_horiz"/>
  <use width="100" height="100" transform="matrix(1, 0, 0, 1, 1200, 1200)" href="#vacuum_tube_horiz_right"/>

  <use width="100" height="100" transform="matrix(1, 0, 0, 1, 400, 500)" href="#vacuum_tube_vert_upper"/>
  <use width="100" height="100" transform="matrix(1, 0, 0, 1, 400, 1400)" href="#vacuum_tube_vert"/>
  <use width="100" height="100" transform="matrix(1.02, 0, 0, 1, 350, 1450)" href="#vacuum_tube_horiz_right"/>
  <use width="100" height="100" transform="matrix(1, 0, 0, 1, 1750, 300)" href="#vacuum_tube_horiz_left"/>
  <use width="100" height="100" transform="matrix(1, 0, 0, 1, 1800, 650)" href="#vacuum_tube_horiz_right"/>
  
</svg>
