<?xml version="1.0" encoding="utf-8"?>
<svg width="100%" viewBox="0 0 1500 1000" xmlns="http://www.w3.org/2000/svg">

  <defs>
    <!-- Vacuum Symbols Will Be Inserted Here -->
  </defs>

  <style>
    <!-- Vacuum Styles Will Be Inserted Here -->
  </style>

  <g id="Header">
    <text class="banner" x="750" y="60" text-anchor="middle">CW Vacuum Layout</text>
    <text id="$TIME_TEXT" class="value" x="1500" y="60" text-anchor="end">2019-11-22 10:54:00</text>
  </g>

  <g id="PV1 Section">
    <use id="$PV1_TURBO_SYMBOL" width="100" height="100" transform="matrix(1, 0, 0, 1, 300, 500)" href="#vacuum_pump_turbo"/>
    <use id="$PV1_VALVE_SYMBOL" width="100" height="100" transform="matrix(1, 0, 0, 1, 300, 700)" href="#vacuum_valve_vert"/>
    <use id="$PV1_PUMP_SYMBOL"  width="100" height="100" transform="matrix(1, 0, 0, 1, 300, 900)" href="#vacuum_pump"/>
    <line class="tube" x1="350" y1="600" x2="350" y2="700"/>
    <line class="tube"  x1="350" y1="800" x2="350" y2="900"/>
    <text x="235" y="960" class="label_m">PV1</text>
    <text id="$PV1_TURBO_TEXT" class="value" x="415" y="560">ON</text>
    <text id="$PV1_VALVE_TEXT" class="value" x="400" y="760">OPEN</text>
    <text id="$PV1_PUMP_TEXT"  class="value" x="415" y="960">ON</text>
  </g>

  <g id="PV2 Section" transform="matrix(1, 0, 0, 1, 400, 0)">
    <use id="$PV2_TURBO_SYMBOL" width="100" height="100" transform="matrix(1, 0, 0, 1, 300, 500)" href="#vacuum_pump_turbo"/>
    <use id="$PV2_VALVE_SYMBOL" width="100" height="100" transform="matrix(1, 0, 0, 1, 300, 700)" href="#vacuum_valve_vert"/>
    <use id="$PV2_PUMP_SYMBOL"  width="100" height="100" transform="matrix(1, 0, 0, 1, 300, 900)" href="#vacuum_pump"/>
    <line class="tube" x1="350" y1="600" x2="350" y2="700"/>
    <line class="tube"  x1="350" y1="800" x2="350" y2="900"/>
    <text x="235" y="960" class="label_m">PV2</text>
    <text id="$PV2_TURBO_TEXT" class="value" x="415" y="560">ON</text>
    <text id="$PV2_VALVE_TEXT" class="value" x="400" y="760">OPEN</text>
    <text id="$PV2_PUMP_TEXT"  class="value" x="415" y="960">ON</text>
  </g>

  <g id="VVD1 Section">
    <use id= "$VVD1_VALVE_SYMBOL" width="100" height="100" transform="matrix(1, 0, 0, 1, 500, 300)" href="#vacuum_valve_horiz"/>
    <text class="label_m" x="550" y="310" text-anchor="middle">VVD1</text>
    <text id="$VVD1_VALVE_TEXT" class="value" x="550" y="410" text-anchor="middle">OPEN</text>
  </g>

  <g id="VVD2 Section" transform="matrix(1, 0, 0, 1, 400, 0)">
    <use id= "$VVD2_VALVE_SYMBOL" width="100" height="100" transform="matrix(1, 0, 0, 1, 500, 300)" href="#vacuum_valve_horiz"/>
    <text class="label_m" x="550" y="310" text-anchor="middle">VVD2</text>
    <text id= "$VVD2_VALVE_TEXT" class="value" x="550" y="410" text-anchor="middle">OPEN</text>
  </g>

  <g id="IonSource">
    <rect class="cavity" x="2" y="290" width="150" height="120"/>
    <text class="label_l" x="75" y="360" text-anchor="middle">IQ</text>
  </g>

  <g id="Gauge GV1" transform="matrix(1, 0, 0, 1, 0, 40)">
    <text class="label_m" x="350" y="85" text-anchor="middle">GV1</text>
    <use id="$GV1_GAUGE_SYMBOL" width="100" height="200" transform="matrix(1, 0, 0, 1, 300, 100)" href="#vacuum_gauge"/>
    <text id="$GV1_GAUGE_TEXT" class="value" x="350" y="290" text-anchor="middle">9.9e-9</text>
  </g>

  <g id="Gauge GV2" transform="matrix(1, 0, 0, 1, 400, 40)">
    <text class="label_m" x="350" y="85"  text-anchor="middle">GV2</text>
    <use id="$GV2_GAUGE_SYMBOL" width="100" height="200" transform="matrix(1, 0, 0, 1, 300, 100)" href="#vacuum_gauge"/>
    <text id="$GV2_GAUGE_TEXT" class="value" x="350" y="290" text-anchor="middle">9.9e-9</text>
  </g>

  <g id="Gauge GV3" transform="matrix(1, 0, 0, 1, 800, 40)">
    <text class="label_m" x="350" y="85"  text-anchor="middle">GV3</text>
    <use id="$GV3_GAUGE_SYMBOL" width="100" height="200" transform="matrix(1, 0, 0, 1, 300, 100)" href="#vacuum_gauge"/>
    <text id="$GV3_GAUGE_TEXT" class="value" x="350" y="290" text-anchor="middle">9.9e-9</text>
  </g>

  <g id="860MeV" transform="matrix(1, 0, 0, 1, 1300, 0)">
    <rect class="nav_box" x="2" y="400" width="196" height="50"/>
    <a href="injector2.html" target="_top">
      <text class="nav_label" x="100" y="432" text-anchor="middle"> &gt;&gt; 860 MeV</text>
    </a>
  </g>

  <g id="Dome Cooling" transform="matrix(1, 0, 0, 1, 1000, 450)">
    <rect class="info_box" x="2" y="250" width="496" height="300"/>
    <text class="label_l" x="250" y="290" text-anchor="middle">Dome Cooling</text>
    <text class="label_m" x="250" y="350" text-anchor="end">Pump</text>
    <text class="label_m" x="250" y="400" text-anchor="end">Leitwerk</text>
    <text class="label_m" x="250" y="450" text-anchor="end">Temp Vorlauf</text>
    <text class="label_m" x="250" y="500" text-anchor="end">Temp Rucklauf</text>
    <text id="$DK_PUMP_TEXT" class="value" x="265" y="350">UNKNOWN</text>
    <text id="$DK_LEITWERK_TEXT" class="value" x="265" y="400">9.999 uS/cm</text>
    <text id="$DK_TEMP_VOR_TEXT" class="value" x="265" y="450">99.9 degC</text>
    <text id="$DK_TEMP_RUCK_TEXT" class="value" x="265" y="500">99.9 degC</text>
  </g>

  <g id="Connecting Lines">
    <line class="tube" x1="350"  y1="350" x2="350"  y2="500"/>
    <line class="tube" x1="750"  y1="350" x2="750"  y2="500"/>
    <line class="tube" x1="155"  y1="350" x2="500"  y2="350"/>
    <line class="tube" x1="600"  y1="350" x2="900"  y2="350"/>
    <line class="tube" x1="1000" y1="350" x2="1500" y2="350"/>
  </g>

</svg>
