<?xml version="1.0" encoding="utf-8"?>
<svg width="100%" height="100%" viewBox="0 0 1700 1600" xmlns="http://www.w3.org/2000/svg">

  <defs>
    <!-- Vacuum Symbols Will Be Inserted Here -->
  </defs>

  <style>
    <!-- Vacuum Styles Will Be Inserted Here -->
  </style>

  <g id="Header">
    <text class="banner" x="850" y="60" text-anchor="middle" >Injector 2 Vacuum Layout</text>
    <text id="$TIME_TEXT" class="value" x="1600" y="60" text-anchor="end" >2019-11-22 10:54:00</text>
  </g>

  <g id="PIK1 Section" transform="matrix(1, 0, 0, 1, 100, 50)">
    <use id="$PIK1_VALVE_AV" width="100" height="100" transform="matrix(1, 0, 0, 1, 0, 100)" href="#vacuum_valve_vert"/>
    <use id="$PIK1_PUMP" width="100" height="100" transform="matrix(1, 0, 0, 1, 0, 300)" href="#vacuum_pump_cryo"/>
    <use id="$PIK1_VALVE_KV" width="100" height="100" transform="matrix(1, 0, 0, 1, 0, 500)" href="#vacuum_valve_vert"/>
    <use id="$GI1_GAUGE_LEVEL" width="100" height="250" transform="matrix(1, 0, 0, 1, 150, 400)" href="#vacuum_gauge" style="--gauge_scale_1:visible;--gauge_scale_2:none;"/>
    <text id="$GI1_GAUGE_TEXT" class="value" x="200" y="630" text-anchor="middle">9.9e-9</text>
    <use width="100" height="100" transform="matrix(1, 0, 0, 1, 0, 50)" style="stroke-linecap: square;" href="#vacuum_tube_vert_upper"/>
    <use width="100" height="100" transform="matrix(1, 0, 0, 1, 0, 200)" href="#vacuum_tube_vert"/>
    <use width="100" height="100" transform="matrix(1, 0, 0, 1, 0, 400)" href="#vacuum_tube_vert"/>
    <use width="100" height="100" transform="matrix(1, 0, 0, 1, 100, 600)" href="#vacuum_tube_horiz"/>
    <use width="100" height="100" transform="matrix(1, 0, 0, 1, 0, 600)" href="#vacuum_tube_t_upper"/>
    <use width="100" height="100" transform="matrix(1, 0, 0, 1, 200, 600)" href="#vacuum_tube_horiz"/>
    <text class="label_m" x="200" y="390" text-anchor="middle">GI1</text>
    <text class="label_m" x="0" y="160" text-anchor="end">PIK1</text>
    <text class="label_m" x="90" y="160">AV</text>
    <text class="label_m" x="90" y="560">KV</text>
  </g>

  <g id="PIK2 Section" transform="matrix(1, 0, 0, 1, 500, 50)">
    <use id="$PIK2_VALVE_AV" width="100" height="100" transform="matrix(1, 0, 0, 1, 0, 100)" href="#vacuum_valve_vert"/>
    <use id="$PIK2_PUMP" width="100" height="100" transform="matrix(1, 0, 0, 1, 0, 300)" href="#vacuum_pump_cryo"/>
    <use id="$PIK2_VALVE_KV" width="100" height="100" transform="matrix(1, 0, 0, 1, 0, 500)" href="#vacuum_valve_vert"/>
    <use id="$GI2_GAUGE_LEVEL" width="100" height="250" transform="matrix(1, 0, 0, 1, 150, 400)" href="#vacuum_gauge" style="--gauge_scale_1:visible;--gauge_scale_2:none;"/>
    <text id="$GI2_GAUGE_TEXT" class="value" x="200" y="630" text-anchor="middle">9.9e-9</text>
    <use width="100" height="100" transform="matrix(1, 0, 0, 1, 0, 50)" style="stroke-linecap: square;" href="#vacuum_tube_vert_upper"/>
    <use width="100" height="100" transform="matrix(1, 0, 0, 1, 0, 200)" href="#vacuum_tube_vert"/>
    <use width="100" height="100" transform="matrix(1, 0, 0, 1, 0, 400)" href="#vacuum_tube_vert"/>
    <use width="100" height="100" transform="matrix(1, 0, 0, 1, 100, 600)" href="#vacuum_tube_horiz"/>
    <use width="100" height="100" transform="matrix(1, 0, 0, 1, 0, 600)" href="#vacuum_tube_t_upper"/>
    <use width="100" height="100" transform="matrix(1, 0, 0, 1, 200, 600)" href="#vacuum_tube_horiz"/>
    <text class="label_m" x="200" y="390" text-anchor="middle">GI1</text>
    <text class="label_m" x="0" y="160" text-anchor="end">PIK1</text>
    <text class="label_m" x="90" y="160">AV</text>
    <text class="label_m" x="90" y="560">KV</text>  </g>

  <g id="PIK3 Section" transform="matrix(1, 0, 0, 1, 900, 50)">
    <use id="$PIK3_VALVE_AV" width="100" height="100" transform="matrix(1, 0, 0, 1, 0, 100)" href="#vacuum_valve_vert"/>
    <use id="$PIK3_PUMP" width="100" height="100" transform="matrix(1, 0, 0, 1, 0, 300)" href="#vacuum_pump_cryo"/>
    <use id="$PIK3_VALVE_KV" width="100" height="100" transform="matrix(1, 0, 0, 1, 0, 500)" href="#vacuum_valve_vert"/>
    <use id="$GI3_GAUGE_LEVEL" width="100" height="250" transform="matrix(1, 0, 0, 1, 150, 400)" href="#vacuum_gauge" style="--gauge_scale_1:visible;--gauge_scale_2:none;"/>
    <text id="$GI3_GAUGE_TEXT" class="value" x="200" y="630" text-anchor="middle">9.9e-9</text>
    <use width="100" height="100" transform="matrix(1, 0, 0, 1, 0, 50)" style="stroke-linecap: square;" href="#vacuum_tube_vert_upper"/>
    <use width="100" height="100" transform="matrix(1, 0, 0, 1, 0, 200)" href="#vacuum_tube_vert"/>
    <use width="100" height="100" transform="matrix(1, 0, 0, 1, 0, 400)" href="#vacuum_tube_vert"/>
    <use width="100" height="100" transform="matrix(1, 0, 0, 1, 100, 600)" href="#vacuum_tube_horiz"/>
    <use width="100" height="100" transform="matrix(1, 0, 0, 1, 0, 600)" href="#vacuum_tube_t_upper"/>
    <use width="100" height="100" transform="matrix(1, 0, 0, 1, 200, 600)" href="#vacuum_tube_horiz"/>
    <text class="label_m" x="200" y="390" text-anchor="middle">GI1</text>
    <text class="label_m" x="0" y="160" text-anchor="end">PIK1</text>
    <text class="label_m" x="90" y="160">AV</text>
    <text class="label_m" x="90" y="560">KV</text>  </g>

  <g id="PIK4 Section" transform="matrix(1, 0, 0, 1, 1300, 50)">
    <use id="$PIK4_VALVE_AV" width="100" height="100" transform="matrix(1, 0, 0, 1, 0, 100)" href="#vacuum_valve_vert"/>
    <use id="$PIK4_PUMP" width="100" height="100" transform="matrix(1, 0, 0, 1, 0, 300)" href="#vacuum_pump_cryo"/>
    <use id="$PIK4_VALVE_KV" width="100" height="100" transform="matrix(1, 0, 0, 1, 0, 500)" href="#vacuum_valve_vert"/>
    <use id="$GI4_GAUGE_LEVEL" width="100" height="250" transform="matrix(1, 0, 0, 1, 150, 400)" href="#vacuum_gauge" style="--gauge_scale_1:visible;--gauge_scale_2:none;"/>
    <text id="$GI4_GAUGE_TEXT" class="value" x="200" y="630" text-anchor="middle">9.9e-9</text>
    <use width="100" height="100" transform="matrix(1, 0, 0, 1, 0, 50)" style="stroke-linecap: square;" href="#vacuum_tube_vert_upper"/>
    <use width="100" height="100" transform="matrix(1, 0, 0, 1, 0, 200)" href="#vacuum_tube_vert"/>
    <use width="100" height="100" transform="matrix(1, 0, 0, 1, 0, 400)" href="#vacuum_tube_vert"/>
    <use width="100" height="100" transform="matrix(1, 0, 0, 1, 100, 600)" href="#vacuum_tube_horiz"/>
    <use width="100" height="100" transform="matrix(1, 0, 0, 1, 0, 600)" href="#vacuum_tube_t_upper"/>
    <use width="100" height="100" transform="matrix(1, 0, 0, 1, 200, 600)" href="#vacuum_tube_horiz"/>
    <text class="label_m" x="200" y="390" text-anchor="middle">GI1</text>
    <text class="label_m" x="0" y="160" text-anchor="end">PIK1</text>
    <text class="label_m" x="90" y="160">AV</text>
    <text class="label_m" x="90" y="560">KV</text>  </g>

  <g id="PIT1 Section" transform="matrix(1, 0, 0, 1, 300, 750)">
    <use id="$PIT1_VALVE_HV" width="100" height="100" transform="matrix(1, 0, 0, 1, 200, 100)"  href="#vacuum_valve_vert"/>
    <use id="$PIT1_PUMP" width="100" height="100" transform="matrix(1, 0, 0, 1, 200, 300)" href="#vacuum_pump_turbo"/>
    <use id="$PIT1_VALVE_PV" width="100" height="100" transform="matrix(1, 0, 0, 1, 200, 600)" href="#vacuum_valve_vert"/>
    <use id="$PIT1_GAUGE_LEVEL" width="100" height="250" transform="matrix(1, 0, 0, 1, 50, 500)"  href="#vacuum_gauge" style="--gauge_scale_1:none;--gauge_scale_2:visible;"/>
    <text id="$PIT1_GAUGE_TEXT" class="value" x="100" y="730" text-anchor="middle">9.9e-9</text>
    <use width="100" height="100" transform="matrix(1, 0, 0, 1, 200, 0)" href="#vacuum_tube_t_lower"/>
    <use width="100" height="100" transform="matrix(1, 0, 0, 1, 200, 400)" href="#vacuum_tube_vert_upper"/>
    <use width="100" height="100" transform="matrix(1, 0, 0, 1, 200, 550)" href="#vacuum_tube_vert_upper"/>
    <use width="100" height="100" transform="matrix(1, 0, 0, 1, 200, 450)" href="#vacuum_buffer"/>
    <use width="100" height="100" transform="matrix(1, 0, 0, 1, 200, 200)" href="#vacuum_tube_vert"/>
    <use width="100" height="100" transform="matrix(1, 0, 0, 1, 200, 700)" href="#vacuum_tube_t_upper"/>
    <use width="100" height="100" transform="matrix(1, 0, 0, 1, 300, 700)" href="#vacuum_tube_horiz"/>
    <use width="100" height="100" transform="matrix(1, 0, 0, 1, 100, 700)" href="#vacuum_tube_horiz"/>
    <use width="100" height="100" transform="matrix(1, 0, 0, 1, 0, 700)" href="#vacuum_tube_horiz"/>
    <use width="100" height="100" transform="matrix(1, 0, 0, 1, 100, 0)" href="#vacuum_tube_horiz"/>
    <use width="100" height="100" transform="matrix(1, 0, 0, 1, 0, 0)" href="#vacuum_tube_horiz"/>
    <use width="100" height="100" transform="matrix(1, 0, 0, 1, 300, 0)" href="#vacuum_tube_horiz"/>
    <text class="label_m" x="100" y="490" text-anchor="middle">PIT1</text>
    <text class="label_m" x="290" y="160">HV</text>
    <text class="label_m" x="290" y="660">PV</text>
  </g>

  <g id="PIT2 Section" transform="matrix(1, 0, 0, 1, 700, 750)">
    <use id="$PIT2_VALVE_HV" width="100" height="100" transform="matrix(1, 0, 0, 1, 200, 100)"  href="#vacuum_valve_vert"/>
    <use id="$PIT2_PUMP" width="100" height="100" transform="matrix(1, 0, 0, 1, 200, 300)" href="#vacuum_pump_turbo"/>
    <use id="$PIT2_VALVE_PV" width="100" height="100" transform="matrix(1, 0, 0, 1, 200, 600)" href="#vacuum_valve_vert"/>
    <use id="$PIT2_GAUGE_LEVEL" width="100" height="250" transform="matrix(1, 0, 0, 1, 50, 500)"  href="#vacuum_gauge" style="--gauge_scale_1:none;--gauge_scale_2:visible;"/>
    <text id="$PIT2_GAUGE_TEXT" class="value" x="100" y="730" text-anchor="middle">9.9e-9</text>
    <use width="100" height="100" transform="matrix(1, 0, 0, 1, 200, 0)" href="#vacuum_tube_t_lower"/>
    <use width="100" height="100" transform="matrix(1, 0, 0, 1, 200, 400)" href="#vacuum_tube_vert_upper"/>
    <use width="100" height="100" transform="matrix(1, 0, 0, 1, 200, 550)" href="#vacuum_tube_vert_upper"/>
    <use width="100" height="100" transform="matrix(1, 0, 0, 1, 200, 450)" href="#vacuum_buffer"/>
    <use width="100" height="100" transform="matrix(1, 0, 0, 1, 200, 200)" href="#vacuum_tube_vert"/>
    <use width="100" height="100" transform="matrix(1, 0, 0, 1, 200, 700)" href="#vacuum_tube_t_upper"/>
    <use width="100" height="100" transform="matrix(1, 0, 0, 1, 300, 700)" href="#vacuum_tube_horiz"/>
    <use width="100" height="100" transform="matrix(1, 0, 0, 1, 100, 700)" href="#vacuum_tube_horiz"/>
    <use width="100" height="100" transform="matrix(1, 0, 0, 1, 0, 700)" href="#vacuum_tube_horiz"/>
    <use width="100" height="100" transform="matrix(1, 0, 0, 1, 100, 0)" href="#vacuum_tube_horiz"/>
    <use width="100" height="100" transform="matrix(1, 0, 0, 1, 0, 0)" href="#vacuum_tube_horiz"/>
    <use width="100" height="100" transform="matrix(1, 0, 0, 1, 300, 0)" href="#vacuum_tube_horiz"/>
    <text class="label_m" x="100" y="490" text-anchor="middle">PIT2</text>
    <text class="label_m" x="290" y="160">HV</text>
    <text class="label_m" x="290" y="660">PV</text>
  </g>

  <g id="Miscellaneous Vacuum Pipes">
    <use width="100" height="100" transform="matrix(1, 0, 0, 1, 700, 1450)" href="#vacuum_tube_horiz"/>
    <use width="100" height="100" transform="matrix(1, 0, 0, 1, 600, 1450)" href="#vacuum_tube_horiz"/>
    <use width="100" height="100" transform="matrix(2, 0, 0, 1, 100, 750)" href="#vacuum_tube_horiz"/>
    <use width="100" height="100" transform="matrix(1, 0, 0, 1, 600, 750)" href="#vacuum_tube_horiz"/>
    <use width="100" height="100" transform="matrix(1, 0, 0, 1, 700, 750)" href="#vacuum_tube_horiz"/>
    <use width="100" height="100" transform="matrix(5, 0, 0, 1, 1100, 750)" href="#vacuum_tube_horiz"/>
    <use width="100" height="100" transform="matrix(1, 0, 0, 1, 1600, 700)" href="#vacuum_tube_hemi_right"/>
    <use width="100" height="100" transform="matrix(1, 0, 0, 1, 0, 700)" href="#vacuum_tube_hemi_left"/>
    <use width="100" height="100" transform="matrix(12, 0, 0, 1, 150, 50)" href="#vacuum_tube_horiz"/>
    <use width="100" height="100" transform="matrix(6, 0, 0, 1, 1000, 1450)" href="#vacuum_tube_horiz"/>
    <use width="100" height="100" transform="matrix(2, 0, 0, 1, 100, 1450)" href="#vacuum_tube_horiz"/>
    <use width="100" height="100" transform="matrix(1, 0, 0, 1, 400, 650)" href="#vacuum_tube_horiz"/>
    <use width="100" height="100" transform="matrix(1, 0, 0, 1, 800, 650)" href="#vacuum_tube_horiz"/>
    <use width="100" height="100" transform="matrix(1, 0, 0, 1, 1200, 650)" href="#vacuum_tube_horiz"/>
  </g>

  <g id="Cryo Temperatures" transform="matrix(1, 0, 0, 1, 1100, 670)">
    <rect class="info_box" x="2" y="250" width="446" height="330"/>
    <text class="label_l" x="225" y="290" text-anchor="middle">Other Information</text>
    <text class="label_m" x="225" y="350" text-anchor="end">PIK1 Temp</text>
    <text class="label_m" x="225" y="400" text-anchor="end">PIK2 Temp</text>
    <text class="label_m" x="225" y="450" text-anchor="end">PIK3 Temp</text>
    <text class="label_m" x="225" y="500" text-anchor="end">PIK4 Temp</text>
    <text class="label_m" x="225" y="550" text-anchor="end">MXC1 Current</text>
    <text id= "$PIK1_TEMP_TEXT" class="value" x="250" y="350">99.9 K</text>
    <text id= "$PIK2_TEMP_TEXT" class="value" x="250" y="400">99.9 K</text>
    <text id= "$PIK3_TEMP_TEXT" class="value" x="250" y="450">99.9 K</text>
    <text id= "$PIK4_TEMP_TEXT" class="value" x="250" y="500">99.9 K</text>
    <text id= "$MXC1_CURRENT_TEXT" class="value" x="250" y="550">99.9 uA</text>
  </g>

  <g id="860KeV Schematic Link" transform="matrix(1, 0, 0, 1, 100, 1000)">
    <rect class="nav_box" x="2" y="400" width="196" height="50"/>
    <a href="860KeV.html" target="_top">
      <text class="nav_label" x="100" y="432" text-anchor="middle">&gt;&gt; 860 KeV</text>
    </a>
  </g>

  <g id="IW2 Schematic Link" transform="matrix(1, 0, 0, 1, 1400, 1000)">
    <rect class="nav_box" x="2" y="400" width="196" height="50"/>
    <a href="cw.html" target="_top">
      <text class="nav_label" x="100" y="432" text-anchor="middle">&gt;&gt; IW2</text>
    </a>
  </g>

  <text x="850" y="760" class="label_l" text-anchor="middle">Injector 2 Cavity</text>

</svg>

