<?xml version="1.0" encoding="utf-8"?>
<svg xmlns="http://www.w3.org/2000/svg">
  <defs>
    <!-- Vacuum Valve: Vertical. Supported vars: 'component_fill_color'. -->
    <symbol id="vacuum_valve_vert" viewBox="0 0 100 100">
      <title>vacuum valve: vertical</title>
      <rect x="22" y="2" width="56" height="96" fill="lightgray" stroke="darkgray" stroke-width="4"/>
      <path d="M 30 15 H 70 L 30 85 H 70 L 30 15" style="fill:var(--component_fill_color)"/>
    </symbol>

    <!-- Vacuum Valve: Horizontal. Supported vars: 'component_fill_color'. -->
    <symbol id="vacuum_valve_horiz" viewBox="0 0 100 100">
      <title>vacuum valve: horizontal</title>
      <rect x="2" y="22" width="96" height="56" fill="lightgray" stroke="darkgray" stroke-width="4"/>
      <path d="M 15 30 V 70 L 85 30 V 70 L 15 30" style="fill:var(--component_fill_color)"/>
    </symbol>

    <!-- Vacuum Pump. Supported vars: 'component_fill_color'. -->
    <symbol id="vacuum_pump" viewBox="0 0 100 100">
      <title>vacuum pump</title>
      <rect x="2" y="2" width="96" height="96" fill="lightgray" stroke="darkgray" stroke-width="4"/>
      <circle cx="50" cy="50" r="35" style="fill:var(--component_fill_color)"/>
      <line x1="45" y1="90" x2="30" y2="10" stroke="lightgray" stroke-width="4"/>
      <line x1="55" y1="90" x2="70" y2="10" stroke="lightgray" stroke-width="4"/>
    </symbol>

    <!-- Vacuum Turbo Pump. Supported vars: 'component_fill_color'. -->
    <symbol id="vacuum_pump_turbo" viewBox="0 0 100 100">
      <title>vacuum pump: turbo</title>
      <rect x="2" y="2" width="96" height="96" fill="lightgray" stroke="darkgray" stroke-width="4"/>
      <circle cx="50" cy="50" r="35" style="fill:var(--component_fill_color)"/>
      <circle cx="50" cy="50" r="5" fill="lightgray"/>
      <line x1="45" y1="90" x2="30" y2="10" stroke="lightgray" stroke-width="4"/>
      <line x1="55" y1="90" x2="70" y2="10" stroke="lightgray" stroke-width="4"/>
    </symbol>

    <!-- Vacuum Cryo Pump. Supported vars: 'component_fill_color'. -->
    <symbol id="vacuum_pump_cryo" viewBox="0 0 100 100">
      <title>vacuum pump: cryo</title>
      <rect x="2" y="2" width="96" height="96" fill="lightgray" stroke="darkgray" stroke-width="4"/>
      <circle cx="50" cy="50" r="35" style="fill:var(--component_fill_color)"/>
      <circle cx="50" cy="50" r="5" fill="lightgray"/>
      <line x1="45" y1="90" x2="30" y2="10" stroke="lightgray" stroke-width="4"/>
      <line x1="55" y1="90" x2="70" y2="10" stroke="lightgray" stroke-width="4"/>
      <circle style="fill: lightgray" cx="50" cy="50" r="10"/>
      <text x="50" y="54" font-size="13" text-anchor="middle">K</text>
    </symbol>

    <!-- Vacuum Gauge. Supported vars: 'gauge_level_in_percent', 'gauge_scale_1', 'gauge_scale_2'. -->
    <symbol id="vacuum_gauge" viewBox="0 0 100 250">
      <title>vacuum gauge</title>
      <rect x="2" y="2" width="96" height="196" fill="lightgray" stroke="darkgray" stroke-width="4"/>
      <rect x="20" y="30" width="40" height="140" fill="lightgray" stroke="darkgray" stroke-width="2"/>
      <rect x="22" width="36" fill="limegreen" style="height: calc( 2px + var(--gauge_level_in_percent) * 1.36px); y:calc( 167px - var(--gauge_level_in_percent) * 1.36px"/>
      <line x1="60" y1="40" x2="65" y2="40" stroke="darkgray" stroke-width="2"/>
      <line x1="60" y1="70" x2="65" y2="70" stroke="darkgray" stroke-width="2"/>
      <line x1="60" y1="100" x2="65" y2="100" stroke="darkgray" stroke-width="2"/>
      <line x1="60" y1="130" x2="65" y2="130" stroke="darkgray" stroke-width="2"/>
      <line x1="60" y1="160" x2="65" y2="160" stroke="darkgray" stroke-width="2"/>
      <!-- Range 1 Scale -->
      <text x="68" y="44" font-size="12" style="display:var(--gauge_scale_1)">10-3</text>
      <text x="68" y="74" font-size="12" style="display:var(--gauge_scale_1)">10-4</text>
      <text x="68" y="104" font-size="12" style="display:var(--gauge_scale_1)">10-5</text>
      <text x="68" y="134" font-size="12" style="display:var(--gauge_scale_1)">10-6</text>
      <text x="68" y="164" font-size="12" style="display:var(--gauge_scale_1)">10-7</text>
      <!-- Range 2 Scale -->
      <text x="68" y="44" font-size="12" style="display:var(--gauge_scale_2)">10-1</text>
      <text x="68" y="74" font-size="12" style="display:var(--gauge_scale_2)">10-2</text>
      <text x="68" y="104" font-size="12" style="display:var(--gauge_scale_2)">10-3</text>
      <text x="68" y="134" font-size="12" style="display:var(--gauge_scale_2)">10-4</text>
      <text x="68" y="164" font-size="12" style="display:var(--gauge_scale_2)">10-5</text>
    </symbol>

    <!-- Vacuum Buffer -->
    <symbol id="vacuum_buffer" viewBox="0 0 100 100">
      <title>vacuum buffer</title>
      <rect x="0" y="0" width="100" height="100" fill-opacity="0"/>
      <ellipse cx="50" cy="50" rx="40" ry="10" fill-opacity="0" stroke="darkgray" stroke-width="4"/>
      <line x1="50" y1="0" x2="50" y2="40" stroke="darkgray" stroke-width="4"/>
      <line x1="50" y1="60" x2="50" y2="100" stroke="darkgray" stroke-width="4"/>
    </symbol>

    <!-- Vacuum Tube: Vertical -->
    <symbol id="vacuum_tube_vert" viewBox="0 0 100 100">
      <title>vacuum tube: vertical tube</title>
      <line x1="50" y1="0" x2="50" y2="100" stroke="darkgray" stroke-width="4"/>
    </symbol>

    <!-- Vacuum Tube: Vertical Upper -->
    <symbol id="vacuum_tube_vert_upper" viewBox="0 0 100 100">
      <title>vacuum tube: vertical upper</title>
      <line x1="50" y1="0" x2="50" y2="50" stroke="darkgray" stroke-width="4"/>
    </symbol>

    <!-- Vacuum Tube: Vertical Lower -->
    <symbol id="vacuum_tube_vert_lower" viewBox="0 0 100 100">
      <title>vacuum tube: vertical lower</title>
      <line x1="50" y1="50" x2="50" y2="100" stroke="darkgray" stroke-width="4"/>
    </symbol>

    <!-- Vacuum Tube: Horizontal -->
    <symbol id="vacuum_tube_horiz" viewBox="0 0 100 100">
      <title>vacuum tube: horizontal</title>
      <line x1="0" y1="50" x2="100" y2="50" stroke="darkgray" stroke-width="4"/>
    </symbol>

    <!-- Vacuum Tube: Horizontal Left -->
    <symbol id="vacuum_tube_horiz_left" viewBox="0 0 100 100">
      <title>vacuum tube: horizontal left</title>
      <line x1="0" y1="50" x2="50" y2="50" stroke="darkgray" stroke-width="4"/>
    </symbol>

    <!-- Vacuum Tube: Horizontal Right -->
    <symbol id="vacuum_tube_horiz_right" viewBox="0 0 100 100">
      <title>vacuum tube: horizontal right</title>
      <line x1="50" y1="50" x2="100" y2="50" stroke="darkgray" stroke-width="4"/>
    </symbol>

    <!-- Vacuum Tube: T-Section Upper-->
    <symbol id="vacuum_tube_t_upper" viewBox="0 0 100 100">
      <title>vacuum tube: T-section upper</title>
      <line x1="0" y1="50" x2="100" y2="50" stroke="darkgray" stroke-width="4"/>
      <line x1="50" y1="0" x2="50" y2="50" stroke="darkgray" stroke-width="4"/>
    </symbol>

    <!-- Vacuum Tube: T-Section Lower-->
    <symbol id="vacuum_tube_t_lower" viewBox="0 0 100 100">
      <title>vacuum tube: T-section lower</title>
      <line x1="0" y1="50" x2="100" y2="50" stroke="darkgray" stroke-width="4"/>
      <line x1="50" y1="50" x2="50" y2="100" stroke="darkgray" stroke-width="4"/>
    </symbol>

    <!-- Vacuum Tube: X-Section -->
    <symbol id="vacuum_tube_x" viewBox="0 0 100 100">
      <title>vacuum tube: X-section</title>
      <line x1="0" y1="50" x2="100" y2="50" stroke="darkgray" stroke-width="4"/>
      <line x1="50" y1="0" x2="50" y2="100" stroke="darkgray" stroke-width="4"/>
    </symbol>

    <!-- Vacuum Tube: Hemisphere Left -->
    <symbol id="vacuum_tube_hemi_left" viewBox="0 0 100 100" overflow="visible">
      <title>vacuum tube: hemisphere left</title>
      <path d="M 100 0 A 50 50 0 0 0 100 100" fill-opacity="0" stroke="darkgray" stroke-width="4"/>
    </symbol>

    <!-- Vacuum Tube: Hemisphere Right -->
    <symbol id="vacuum_tube_hemi_right" viewBox="0 0 100 100" overflow="visible">
      <title>vacuum tube: hemisphere right</title>
      <path d="M 0 0 A 50 50 0 0 1 0 100" fill-opacity="0" stroke="darkgray" stroke-width="4"/>
    </symbol>
</defs>

</svg>
