<?xml version="1.0" encoding="utf-8"?>
<svg xmlns="http://www.w3.org/2000/svg">
  <defs>

    <symbol id="my_valve" viewBox="0 0 100 100">
      <rect x="22" y="2" width="56" height="96" style="fill: lightgray; stroke: darkgray; stroke-width:4"/>
      <path id="status" d="M 30 15 H 70 L 30 85 H 70 L 30 15" fill="limegreen"/>
    </symbol>

    <symbol id="my_pump" viewBox="0 0 100 100">
      <rect x="2" y="2" width="96" height="96" style="fill: lightgray; stroke: darkgray; stroke-width:4"/>
      <circle id="status" cx="50" cy="50" r="35" fill="limegreen"/>
      <line x1="45" y1="90" x2="30" y2="10" style="stroke:lightgray; stroke-width:4"/>
      <line x1="55" y1="90" x2="70" y2="10" style="stroke:lightgray; stroke-width:4"/>
    </symbol>

    <symbol id="my_turbo_pump" viewBox="0 0 100 100">
      <rect x="2" y="2" width="96" height="96" style="fill: lightgray; stroke: darkgray; stroke-width:4"/>
      <circle id="status" cx="50" cy="50" r="35" fill="limegreen"/>
      <circle cx="50" cy="50" r="5" fill="lightgray"/>
      <line x1="45" y1="90" x2="30" y2="10" style="stroke:lightgray; stroke-width:4"/>
      <line x1="55" y1="90" x2="70" y2="10" style="stroke:lightgray; stroke-width:4"/>
    </symbol>

    <symbol id="my_gauge" viewBox="0 0 100 200">
      <rect x="2" y="12" width="96" height="176" style="fill: lightgray; stroke: darkgray; stroke-width: 4;"/>
      <rect x="20" y="30" width="40" height="140" style="fill: limegreen; stroke: darkgray; stroke-width: 2;"/>
      <rect x="21" y="31" width="39" height="9" style="fill: lightgray;"/>
      <line style="stroke: darkgray; stroke-width: 2px;" x1="60" y1="40" x2="65" y2="40"/>
      <line style="stroke: darkgray; stroke-width: 2px;" x1="60" y1="70" x2="65" y2="70"/>
      <line style="stroke: darkgray; stroke-width: 2px;" x1="60" y1="100" x2="65" y2="100"/>
      <line style="stroke: darkgray; stroke-width: 2px;" x1="60" y1="130" x2="65" y2="130"/>
      <line style="stroke: darkgray; stroke-width: 2px;" x1="60" y1="160" x2="65" y2="160"/>
      <text x="68" y="44" style="font-size: 12px; white-space: pre;">10-3</text>
      <text x="68" y="74" style="font-size: 12px; white-space: pre;">10-4</text>
      <text x="68" y="104" style="font-size: 12px; white-space: pre;">10-5</text>
      <text x="68" y="134" style="font-size: 12px; white-space: pre;">10-6</text>
      <text x="68" y="164" style="font-size: 12px; white-space: pre;">10-7</text>
    </symbol>

  </defs>
</svg>